<?xml version="1.0" encoding="iso-8859-1"?>
<!-- Generator: Adobe Illustrator 19.0.0, SVG Export Plug-In . SVG Version: 6.00 Build 0)  -->
<svg version="1.1" id="Capa_1" xmlns="http://www.w3.org/2000/svg" xmlns:xlink="http://www.w3.org/1999/xlink" x="0px" y="0px"
	 viewBox="0 0 512.002 512.002" style="enable-background:new 0 0 512.002 512.002;" xml:space="preserve">
<g>
	<g>
		<path d="M265.815,73.976H151.103c-20.595,0-37.351,16.755-37.351,37.351v8.666h189.414v-8.666
			C303.166,90.732,286.411,73.976,265.815,73.976z"/>
	</g>
</g>
<g>
	<g>
		<path d="M256.001,219.085c-41.313,0-74.925,33.611-74.925,74.925c0,41.314,33.611,74.925,74.925,74.925
			c41.314,0,74.925-33.611,74.925-74.925C330.926,252.696,297.314,219.085,256.001,219.085z"/>
	</g>
</g>
<g>
	<g>
		<path d="M482.002,149.993H427.53v-12.055h7.327c8.284,0,15-6.716,15-15c0-1.008-0.103-1.992-0.293-2.945
			c-1.369-6.873-7.431-12.055-14.707-12.055h-44.653c-7.276,0-13.338,5.181-14.707,12.055c-0.19,0.953-0.293,1.937-0.293,2.945
			c0,8.284,6.715,15,15,15h7.327v12.055H30c-16.569,0-30,13.431-30,30v228.033c0,16.569,13.431,30,30,30h452.002
			c16.569,0,30-13.431,30-30V179.993C512.002,163.424,498.571,149.993,482.002,149.993z M256.001,398.934
			c-57.855,0-104.925-47.069-104.925-104.925s47.069-104.925,104.925-104.925c57.856,0,104.925,47.069,104.925,104.925
			S313.856,398.934,256.001,398.934z M438.615,239.158h-34.953c-8.284,0-15-6.716-15-15s6.716-15,15-15h34.953
			c8.284,0,15,6.716,15,15C453.615,232.442,446.899,239.158,438.615,239.158z"/>
	</g>
</g>
<g>
</g>
<g>
</g>
<g>
</g>
<g>
</g>
<g>
</g>
<g>
</g>
<g>
</g>
<g>
</g>
<g>
</g>
<g>
</g>
<g>
</g>
<g>
</g>
<g>
</g>
<g>
</g>
<g>
</g>
</svg>
