<?xml version="1.0" encoding="iso-8859-1"?>
<!-- Generator: Adobe Illustrator 19.0.0, SVG Export Plug-In . SVG Version: 6.00 Build 0)  -->
<svg version="1.1" id="Capa_1" xmlns="http://www.w3.org/2000/svg" xmlns:xlink="http://www.w3.org/1999/xlink" x="0px" y="0px"
	 viewBox="0 0 507.9 507.9" style="enable-background:new 0 0 507.9 507.9;" xml:space="preserve">
<g>
	<g>
		<path d="M434.3,106.5H336v-8.2c0-22.6-18.4-41-41-41h-82c-22.6,0-41,18.4-41,41v8.2h-32.8V73.7H73.7v32.8
			C33.1,106.5,0,139.6,0,180.3v196.6c0,40.7,33.1,73.7,73.7,73.7h360.5c40.7,0,73.7-33.1,73.7-73.7V180.3
			C508,139.6,474.9,106.5,434.3,106.5z M188.5,98.3c0-13.6,11-24.6,24.6-24.6H295c13.6,0,24.6,11,24.6,24.6v8.2H188.5V98.3z
			 M90.1,90.1h32.8v16.4H90.1V90.1z M491.6,376.9c0,31.6-25.7,57.4-57.4,57.4H73.7c-31.6,0-57.4-25.7-57.4-57.4V180.3
			c0-31.6,25.7-57.4,57.4-57.4h360.5c31.6,0,57.4,25.7,57.4,57.4V376.9z" stroke="white"/>
	</g>
</g>
<g>
	<g>
		<path d="M254,147.5c-72.3,0-131.1,58.8-131.1,131.1S181.7,409.7,254,409.7s131.1-58.8,131.1-131.1S326.3,147.5,254,147.5z
			 M254,393.3c-63.3,0-114.7-51.5-114.7-114.7c0-63.3,51.5-114.7,114.7-114.7c63.3,0,114.7,51.5,114.7,114.7S317.3,393.3,254,393.3z
			"/>
	</g>
</g>
<g>
	<g>
		<path d="M254,196.6c-45.2,0-81.9,36.8-81.9,81.9c0,45.2,36.8,81.9,81.9,81.9c45.2,0,81.9-36.8,81.9-81.9
			C335.9,233.4,299.2,196.6,254,196.6z M254,344.1c-36.1,0-65.5-29.4-65.5-65.5c0-36.1,29.4-65.5,65.5-65.5
			c36.1,0,65.5,29.4,65.5,65.5C319.5,314.7,290.1,344.1,254,344.1z"/>
	</g>
</g>
<g>
	<g>
		<path d="M204.8,278.6h16.4c0-18.1,14.7-32.8,32.8-32.8v-16.4C226.9,229.4,204.8,251.5,204.8,278.6z"/>
	</g>
</g>
<g>
	<g>
		<rect x="409.7" y="155.7" width="49.2" height="16.4"/>
	</g>
</g>
<g>
	<g>
		<path d="M65.5,147.5c-13.6,0-24.6,11-24.6,24.6c0,13.6,11,24.6,24.6,24.6s24.6-11,24.6-24.6C90.1,158.5,79.1,147.5,65.5,147.5z
			 M65.5,180.3c-4.5,0-8.2-3.7-8.2-8.2s3.7-8.2,8.2-8.2s8.2,3.7,8.2,8.2S70.1,180.3,65.5,180.3z"/>
	</g>
</g>
<g>
</g>
<g>
</g>
<g>
</g>
<g>
</g>
<g>
</g>
<g>
</g>
<g>
</g>
<g>
</g>
<g>
</g>
<g>
</g>
<g>
</g>
<g>
</g>
<g>
</g>
<g>
</g>
<g>
</g>
</svg>
